<?xml version="1.0" encoding="UTF-8"?>
<svg id="Layer_2" data-name="Layer 2" xmlns="http://www.w3.org/2000/svg" viewBox="0 0 78 92.65">
  <g id="Layer_1-2" data-name="Layer 1">
    <path d="M19.21,92.54c-1.59-.21-1.91-5.67-.65-6.66,1.63-1.28,4.05-2.05,6.8-3.19,8.15-3.39,13.73-13.48,13.87-22.55l.49-31.66c-15.71-.77-29.69,4.47-32.06,19.86-.28,1.79-.62,3.72-1.57,4.2s-3.64.42-4.67.07c-4.68-1.58,1.61-28.68,26.7-30.72l38.04-.69-14.83-15.4c-1.02-1.06-.85-4.55.57-5.4,1.49-.9,4.09-.12,5.55,1.38l19.86,20.47c1.89,1.95-.57,5.32-2.01,6.74l-18.22,18.04c-.93.92-3.54,1.76-4.72,1.42-1.39-.41-2.25-4.19-1.18-5.3l13.99-14.53-18.09-.22-.18,25.2c-.09,11.82-3.61,23.61-12.06,31.87-3.98,3.89-9.21,7.93-15.64,7.08Z"/>
  </g>
</svg>