<?xml version="1.0"?>
<svg id="Layer_2" data-name="Layer 2" xmlns="http://www.w3.org/2000/svg" viewBox="0 0 24.31 17.74">
  <defs>
    
  </defs>
  <g id="Logos">
    <g>
      <path class="cls-1" d="M8.87,8.3c1.75,1.63,4.45,1.73,6.31.21l-.07-.11s.11.07.14.05c.67-.57,1.18-1.32,1.44-2.12l-.08-.03s0-.02,0-.03c0-.01.08.06.11-.05.66-1.99-.3-4.8-2.43-5.75-2.19-.98-4.73-.41-6.09,1.54-1.39,1.97-1.09,4.67.66,6.29ZM13.63,9.07c-.25,0-.49.06-.72.1-.9-.43-1,.19-1.53-.21-.37-.28-.47-.05-1.23-.33-.27-.1-.56-.16-.85-.23-.05-.08-.08-.19-.09-.3.69.31,1.64.64,2.4.54.17-.02.31-.02.47.03.27.09.55.09.79-.07.24-.15.5-.35.56-.65-.34.51-.77.89-1.41.64-.38-.15-.87.34-2.83-.58-.13-.06-.31-.23-.26-.38.04-.14.18-.27.28-.38l.54.28-.05.15c-.06.19,1.12.26,1.25.27.29.01.59,0,.87.04.14.02.3.13.46.14.3,0,.6.02.88-.07.16-.05.26-.19.46-.28-.11.42-.37.74-.6,1.14.25-.18.34-.47.52-.72.23.25.17.61.09.88ZM10.78,5.49c.09.03.16.04.19.08.02.03.03.15-.01.17l-.18.07c.11.04.21.17.19.32-.08.61-.24.94-.68,1.38l-1.02-.63c.81-.25,1.32-.63,1.51-1.39ZM9.18,6.79c.42-.31.84-.61,1.28-.9-.02.34-.3.48-.53.59-.24.12-.44.32-.75.31ZM10.98,5.88l2.97.74c.1.03.19.04.24.17l-.91-.23c.13.25.11.51-.11.67-.12.09-.29.17-.44.23-.09,0-.17-.04-.27,0l1.05.28-.22.14c-.73-.43-2-.21-2.85-.11.58-.52.8-1.06.54-1.9ZM11.75,4.3l2.43.71c.19.06.34.58.26.88-.06.22-.16.42-.29.64-1.34-.66-1.62-.72-3.13-.76.58-.32.93-.76.73-1.48ZM11.06,5.5c.06-.09.17-.09.31-.05-.04.12-.21.12-.31.05ZM11.88,2.88l.49.15-.27.09c.26.22.24.62-.01.83l-.67-.11c.4-.19.59-.53.46-.96ZM11.74,2.81c.2.17.14.42.04.6l-.04-.6ZM12.28,2.02l1.37.38c.06.02.13.14.14.2l-1.28-.37c.1.13.15.18.22.3.06.09.02.37-.12.37-.21,0-.42-.06-.65-.12l.22-.12c.08-.04.18-.17.19-.25.02-.11-.03-.25-.1-.4ZM14.2,4.84c-1.06-.51-1.02-.65-2.29-.67.35-.17.52-.52.38-.94l1.66.49c.27.3.39.71.25,1.12ZM15.74,4.95c-.22,0-1.39.2-1.53-.08.52,0,.99.03,1.53.08ZM14.13,3.82l-.1-.17,1.19-.62c-.34.27-.7.51-1.09.78ZM13.98,3.59c-.23-.08-.44-.21-.65-.26l-.94-.21c.15-.08.3-.15.36-.24.1-.14.06-.3,0-.51l1.2.36c.1.1.21.28.23.43.03.15-.07.35-.2.43ZM12.53,4.29l.85.23c.08.02.15.09.17.21l-1.67-.48c.2,0,.44-.02.65.04ZM13.58,6.45c-.29,0-.48-.11-.61-.36.23.04.5.15.61.36ZM12.59,6.13l-.05-.06-.05-.06s.05-.06.07-.06c.16-.02.34.12.31.35l-.29-.08s.02-.08,0-.09ZM12.39,6.01h-.15s-.03.06-.05.11c-.14-.02-.31-.06-.45-.11-.04-.28.46-.09.61-.11l.08.03s-.01.08-.04.08ZM11.66,5.97l-.12-.02c-.12-.02-.22-.03-.34-.08.64-.11.46.11.46.11ZM13.89,7.77l-.51-.12-.31-.09c.3-.02.62.03.94.11,0,.06-.07.12-.12.11ZM13.9,7.87l-.26.33c-.1-.08.03-.35.09-.39.03-.03.15.03.16.07ZM11.84,7.78c-.04.07-.07.11-.09.12-.03.01-.11-.07-.09-.11.02-.05.06-.1.09-.11.04-.01.11.06.09.09ZM13.68,8.31c.04-.26.4-.54.67-.37-.23.15-.4.25-.67.37ZM14.64,7.92c-.27-.21-.51-.34-.83-.38l-.84-.1c.36-.27.49-.28.44-.79l1.43.39c.23.26.04.61-.2.88ZM13.83,1.4s.02-.08.04-.07l.5.3c.13.08.23.16.36.26l.32-.29c-.05.17-.13.24-.24.38.53.51.89,1.13,1.09,1.83l.76-.17-.74.27c.15.7.13,1.39-.09,2.07l.68.25-.72-.14c-.18.47-.42.88-.76,1.26-.1-.14-.05-.28.08-.43l-.77-.45s-.04-.07-.03-.09c0-.02.07-.06.09-.04l.74.53c.19-.26.32-.52.45-.84l-1.05-.27c-.01-.06-.01-.17.01-.2l1.08.36c.21-.66.24-1.31.09-1.96l-1.42.48v-.23s1.39-.35,1.39-.35c-.18-.67-.52-1.25-1.02-1.73l-.46.56s-.16,0-.17-.04l.55-.59c-.25-.23-.52-.4-.81-.56l.16-.06-.11-.03ZM14.15,2l-.09.21c-.1-.11-.22-.14-.43-.16l.08-.3c.17.08.3.16.44.25ZM13.46,2.15l-.04.1s-.1-.03-.09-.05c.09-.19.24-.49.36-.69-.05.21-.14.42-.23.64ZM8.52,6.1s-.07-.06-.09-.06c-.02,0,.05-.06.05-.07-.08-.26-.16-.64-.18-.95l-.89-.06.88-.06c0-.7.14-1.38.51-2.02l-.57-.43c.23.1.41.21.63.33.39-.62.91-1.12,1.58-1.45-.08-.22-.16-.41-.23-.63l.32.59c.68-.31,1.39-.42,2.14-.32l.14-.64-.04.64c.3.07.56.14.83.24-.11,0-.18,0-.29,0l-.06.07-.52-.11-.09.82s-.12.03-.15,0l.14-.83c-.36-.04-.67-.04-1.01,0l.3,1.55-.19.06-.14-1.6c-.35.06-.67.16-.99.3l1.05,2.11c.03.06-.15.19-.22.18l-.92-2.24c-.62.3-1.13.78-1.49,1.37l2.26,1.34c0,.28-.14.43-.27.66.3-.22.38-.56.28-.92l.56.16c-.11.14-.23.09-.39.07l.19.1c.22.38.09.82-.22,1.1l-.92-.09c.2-.13.36-.25.53-.4h-.12s-.06-.02-.05-.04c0-.03.06-.04.12-.07l-.15-.05-.11-.3.38.05-2.13-1.5c-.18.28-.28.56-.38.9l2.08.51-.04.25-2.04-.73c-.08.35-.11.65-.11.99l2.12-.08c0,.1,0,.19-.03.27l-2.08-.08c.03.33.08.63.19.94l1.66-.59s.13.02.16.04c.03.02.02.13,0,.16l-1.8.44c.09.26.2.47.33.71h-.18s.29.17.29.17l.35.43-.36-.15s-.1-.1-.13-.12c-.26.14-.5.3-.78.42l.72-.53c-.15-.25-.33-.6-.43-.83ZM11.34,3.81c-.09.07-.32.03-.38-.06-.36-.47-.7-.89-1.04-1.4.49.46.92.94,1.42,1.46Z"></path>
      <path class="cls-1" d="M1.3,16.37h.29s.4-1.66.4-1.66c.11-.45.19-.87.34-1.31l.02,2.47c0,.14-.09.24-.21.29v.23c.37-.02.66-.01,1.01,0,.07-.37-.18-.2-.18-.45v-2.86c0-.16.04-.32.06-.49-.06.11-.11.27-.11.42v2.82c0,.1.01.2.02.31-.06-.06-.12-.17-.12-.27v-2.97c0-.21.06-.44.28-.49.02,0,.02.06.01.08l-.02.07c.14.02.13-.22.06-.27-.27.03-.55.03-.82,0l-.64,2.81-.47-1.81c-.09-.34-.15-.67-.2-1.01-.08.01-.21.04-.29.04l-.58-.03v.25c.11.05.2.13.19.26-.02,1.06-.06,2.09-.15,3.14,0,.12-.09.18-.2.22v.23s.81,0,.81,0v-.24c-.15-.02-.24-.13-.25-.29-.04-.86-.06-1.72,0-2.57l.74,3.08ZM2.94,16.22h.11s.02.07,0,.1c-.24-.01-.54-.01-.77,0-.02,0-.06-.02-.07-.03-.01-.01.06-.07.08-.07h.64ZM2.28,13.01c.04.06.04.14.02.21l-.3,1.16c.06-.48.18-.92.29-1.37ZM1.71,15.19s.09.03.09.06l-.23,1c-.02.08-.16.07-.21.02l.11-.11.2-.9s.03-.06.03-.07ZM.98,12.4l.64,2.74-.11.03-.64-2.74.11-.03ZM.63,16.22h.1s.02.09,0,.09c-.14,0-.42,0-.56,0-.02,0-.05-.02-.07-.03-.01-.01.06-.07.08-.07h.45ZM.55,16.11c-.24-.03-.15-1.63-.14-1.86.02-.31.02-.6.02-.91l.06-.3c.02.15,0,.3-.01.46-.03.79-.01,1.57.03,2.36,0,.07.03.16.04.25Z"></path>
      <path class="cls-1" d="M6.17,13.6c0,.75-.03,1.48-.08,2.23-.03.45-.45.28-.22.55h.82s.03-.17,0-.19l-.16-.06c-.22-.33-.14-1.66-.13-2.09l1.21,2.36c.23-.02.35-.02.55,0,0-.96.03-1.92.12-2.89.01-.14.1-.24.23-.27v-.2s-.87,0-.87,0v.2c.13.03.2.09.26.2.03.26.05.5.05.76v1.29c-.46-.84-.86-1.63-1.17-2.5-.29.08-.57.08-.89.06v.19c.14.05.29.19.28.38ZM8.03,16.21c-.01-.21-.02-.44,0-.66.04-.47-.05-2.12.2-2.37.04-.04.17-.04.21-.03-.11.11-.22.22-.23.38l-.11,1.68c-.02.36-.02.73-.01,1.09l-.37.02s-.08-.05-.08-.09l.39-.02ZM7.26,14.31l.6,1.23c-.14-.13-.19-.29-.27-.44-.17-.3-.85-1.66-.87-2.01l.55,1.22ZM6.25,14.81l.04-1.1.02,1.64c0,.29.05.56.12.83-.27-.21-.19-1.08-.18-1.37ZM6.65,16.3l-.75.02c.21-.18.5-.12.75-.02Z"></path>
      <path class="cls-1" d="M5.41,15.97c-.34.42-.9.58-1.36.25.27.06.54.14.81.02.89-.4.98-2.02.6-2.81.37.38.34,1.34.23,1.82-.06.26-.18.48-.28.72.47-.57.5-1.72.25-2.38-.15-.39-.48-.61-.89-.64-.75-.05-1.18.52-1.3,1.2-.11.61-.08,1.61.42,2.07.48.37,1.22.29,1.51-.26ZM4.75,16.16c-.28.03-.45-.32-.51-.58-.13-.56-.17-1.12-.09-1.68.04-.28.18-.72.49-.71.25.01.38.46.42.68.07.42.24,2.22-.31,2.29ZM4.48,13.06c.12-.03.26,0,.35.11-1.06-.31-.83,2.39-.46,2.93-.49-.42-.64-2.86.11-3.04Z"></path>
      <path class="cls-1" d="M23.3,12.96c-.76-.07-1.2.49-1.32,1.17-.11.6-.09,1.67.41,2.08.51.42,1.24.27,1.58-.3.26-.44.35-.9.35-1.39,0-.7-.17-1.48-1.01-1.56ZM22.47,13.93c.02-.23.09-.46.2-.65.13-.23.42-.32.62-.14-.2-.02-.41,0-.49.2.1-.07.19-.14.29-.15.26-.03.41.43.45.65.08.45.25,2.18-.28,2.31-.08.02-.23-.02-.28-.08-.42-.46-.4-1.54-.36-2.14l.18-.61c-.42.57-.28,2.12.02,2.74-.4-.41-.41-1.59-.35-2.13ZM24.13,13.73c.24.81.17,2.14-.67,2.59-.31.1-.68.11-.95-.12.29.09.57.14.86.03.8-.41.93-1.87.66-2.56l-.11-.27c.1.08.16.2.2.33Z"></path>
      <path class="cls-1" d="M15.15,16.12c.25-.19.32-.53.29-.85-.03-.42-.31-.73-.76-.78.33-.19.54-.47.56-.82.02-.35-.15-.64-.51-.69-.47-.06-.82.14-1.4.05,0,.05-.03.15,0,.17l.12.08s.07.17.07.25v2.31c0,.1-.04.25-.09.31-.05.04-.13.06-.12.09v.15c.34-.02.65,0,.99.03.32.04.66-.03.85-.29-.57.44-.99.14-1.73.18.09-.18.76-.02,1.11-.02.32,0,.61-.3.71-.54.14-.34.07-.66-.09-.95.39.36.32.94.02,1.34ZM14.82,14.16c.29-.25.32-.59.2-.96.34.4.14.98-.31,1.19.02-.1.06-.19.11-.23ZM14.62,13.5c.12.31.09.64-.07.96-.13.03-.28.03-.42,0v-1.19c.18-.11.41.03.49.22ZM13.98,13.16c.21-.08.44-.07.58.11-.16-.05-.3-.14-.48-.02v1.24s-.08.04-.09.03v-.07s-.01-1.3-.01-1.3ZM14.07,16.03c-.06-.02-.1-.09-.1-.16v-1.29s.4.02.4.02c.1,0,.21.04.26.11-.2-.06-.36-.09-.56-.03v1.35ZM14.6,16.16c-.18.07-.47-.1-.47-.33v-1.1c.28-.13.61.09.67.38.06.28.09.94-.2,1.05Z"></path>
      <path class="cls-1" d="M11.11,16.18l-.02.19,1.77.02.13-.79s.01-.11,0-.14c0-.03-.12-.03-.12,0-.08.47-.47.69-.93.62v-1.26s.76-.04.76-.04l.07-.27c-.3.01-.57,0-.84-.04v-1.16c.15-.01.32,0,.46.05.35.13.25.51.35.57.02.01.1-.02.11-.06l.04-.68c0-.06.02-.13,0-.14s-.09-.03-.13-.03l-1.65.03c-.02.05-.03.18.02.2.09.04.19.11.19.23.02.83.02,1.62,0,2.45,0,.13-.09.22-.21.25ZM12.75,13.22l.02-.09s.09.02.08.04l-.05.57c-.09-.17-.09-.34-.05-.52ZM11.81,13.17c.27-.02.57-.03.78.2-.22-.08-.43-.15-.68-.11-.02.45-.02.85-.06,1.3-.08-.48-.02-.9-.04-1.39ZM12.59,14.63h.09s0,.07-.01.09l-.77.05c-.05.58.03.85,0,1.37-.06-.03-.09-.07-.09-.12v-1.33c.24-.03.51-.05.78-.06ZM11.51,16.21l1.23.04c.04-.18.02-.32.17-.44l-.08.52-1.63-.03c.08-.07.19-.09.31-.09Z"></path>
      <path class="cls-1" d="M15.6,13.21s.09.07.15.1c.06.04.1.21.1.31v2.11c0,.13-.03.29-.08.4-.04.02-.15.03-.15.07v.17s1.77.02,1.77.02l.14-.91s-.13-.06-.13-.03c-.05.46-.47.71-.93.64v-1.26s.76-.04.76-.04l.07-.27c-.29.01-.54,0-.84-.03v-1.17c.36-.04.73.09.74.51,0,.04.05.12.08.11.05,0,.08-.05.08-.12l.05-.75s-.13-.05-.2-.05l-1.56.03c-.05,0-.08.11-.06.16ZM17.33,13.12s.04.06.04.08l-.06.49c-.13-.06-.05-.65.02-.56ZM17.21,14.65s-.03.07-.05.07l-.75.05v1.35s-.09-.04-.09-.07v-1.36c.2-.03.76-.08.89-.04ZM16.32,13.17c.25-.03.52-.03.74.15-.21-.04-.42-.08-.64-.08-.04.46.04.86-.06,1.32-.11-.47-.01-.91-.04-1.4ZM16.04,16.21l1.21.03c.01-.2.04-.31.16-.45l-.07.54-1.62-.03c.09-.08.2-.09.32-.09Z"></path>
      <path class="cls-1" d="M10.68,14.04h.11s.08-1.07.08-1.07c-.72.11-1.41.08-2.11.03l-.07,1.02s.07.09.09.08c.01-.01.03-.04.04-.06l.12-.44-.1.12c0-.08,0-.22.04-.26.15-.12.43-.21.64-.11-.2.11-.42.04-.54.21.16-.06.3-.1.48-.1v2.26c0,.51-.32.43-.32.48v.18s1.23,0,1.23,0v-.2c-.1-.02-.2-.04-.24-.07-.03-.03-.07-.14-.07-.18v-2.48c.16-.04.35-.05.49.07.19.16.04.54.12.53ZM10.7,13.19l.02-.07s.09.02.09.05l-.06.5c-.09-.16-.07-.31-.05-.48ZM10.33,16.3l-1.13.02c.36-.17.75-.12,1.13-.02ZM10.01,13.38v2.51c0,.1.02.19.02.27-.08-.08-.12-.2-.12-.32v-2.53c.24-.05.49-.05.67.09-.19-.02-.36-.03-.57-.02Z"></path>
      <path class="cls-1" d="M20.11,13.63v2.12c0,.12-.03.31-.11.37l-.13.1s.01.16.06.16c.49-.02,1.07-.02,1.57,0l.12-1.08s-.15-.04-.15-.01c-.03.17-.09.41-.18.56-.13.19-.33.27-.55.21v-2.38c0-.13.04-.32.11-.39.05-.03.15-.04.15-.08l-.02-.17c-.37.02-.72.02-1.1,0-.14.37.23.04.23.61ZM20.73,13.16c.06-.02.19-.02.22,0-.13.09-.25.17-.26.35-.04.41-.04.78-.04,1.17l.02,1.38-.04.04s-.05-.07-.05-.1v-2.02c0-.16-.04-.75.15-.82ZM21.36,16.22c0-.24.04-.41.15-.59l-.06.67h-1.4c-.06.06-.07.03-.05-.07l1.35-.02Z"></path>
      <path class="cls-1" d="M18.07,13.52v2.3c0,.1-.05.26-.1.3-.06.04-.13.06-.13.09l.02.16h1.61s.12-1.06.12-1.06c0-.04-.14-.08-.15-.05-.04.18-.08.4-.18.56-.12.18-.34.31-.55.21l-.02-1.7.03-.98c-.19.69.02,2.03-.11,2.76-.12-.87-.04-1.68-.05-2.52,0-.13.05-.3.11-.4.03-.05.19-.06.26-.04l-.11.11c.07,0,.16-.01.16-.06v-.17c-.4.02-.72.02-1.13,0v.21c.15.03.23.14.23.29ZM19.31,16.23c.02-.2.04-.39.15-.56,0,.23-.02.43-.05.64h-1.45c-.03.07-.02,0-.02-.02,0-.14,1.2-.07,1.37-.07Z"></path>
      <path class="cls-1" d="M12.11,17.25c-.25.15-.5.2-.79.2l-9.79.05,9.75.04c.31,0,.57.04.83.2.25-.14.48-.2.8-.2l9.88-.04-9.86-.05c-.31,0-.56-.06-.82-.2ZM11.97,17.5c.03-.09.19-.12.31-.02-.05.1-.21.12-.31.02Z"></path>
      <path class="cls-1" d="M8.97,7.62c.69.38,2.21.76,2.95.65l-.51-.04c-.85-.06-1.61-.35-2.44-.61Z"></path>
    </g>
  </g>
</svg>