<?xml version="1.0"?>
<svg id="Layer_2" data-name="Layer 2" xmlns="http://www.w3.org/2000/svg" viewBox="0 0 29.26 16.41">
  <defs>
    
  </defs>
  <g id="Logos">
    <g>
      <g>
        <g>
          <path class="cls-1" d="M10.15,12.18l-2.11,2.03,1.79,2.21,2.1-2.05-1.79-2.18ZM8.72,14.21l1.27-1.2,1.23,1.3-1.27,1.22-1.24-1.31Z"></path>
          <polygon class="cls-1" points="7.75 16.41 7.16 16.41 7.16 14.67 5.43 14.67 5.43 16.41 4.84 16.41 4.84 14.67 4.13 14.67 4.13 14.08 4.84 14.08 4.84 12.35 5.43 12.35 5.43 14.08 7.16 14.08 7.16 12.35 7.75 12.35 7.75 16.41"></polygon>
          <polygon class="cls-1" points="15.61 16.41 12.3 16.41 12.3 15.77 12.68 15.77 12.68 14.76 12.23 14.76 12.23 14.09 12.68 14.09 12.68 13.02 12.24 13.02 12.24 12.33 15.11 12.33 15.11 13.02 13.34 13.02 13.34 14.09 14.69 14.09 14.69 14.76 13.34 14.76 13.34 15.77 15.61 15.77 15.61 16.41"></polygon>
          <polygon class="cls-1" points="18.19 16.41 16.63 14.98 16.63 16.41 16.08 16.41 16.08 14.51 15.09 13.59 15.68 13.33 17.61 15.07 17.61 12.33 18.19 12.33 18.19 16.41"></polygon>
          <rect class="cls-1" x="18.68" y="13.25" width=".65" height="3.16"></rect>
          <rect class="cls-1" x="18.67" y="12.33" width=".68" height=".7"></rect>
          <polygon class="cls-1" points="21.71 15.5 22.32 14.91 22.82 15.42 21.78 16.41 19.69 14.19 21.68 12.3 22.86 13.56 22.44 13.97 21.71 13.21 20.58 14.29 21.71 15.5"></polygon>
          <rect class="cls-1" x="23.06" y="13.27" width=".64" height="3.14"></rect>
          <polygon class="cls-1" points="23.71 13.05 23.04 13.05 23.03 12.33 23.71 12.33 23.71 13.05"></polygon>
          <path class="cls-1" d="M0,11.1v.8l1.21.85v1.73l-1.21.46v1.13l1.23-.66v1h.69v-1.37l2.08-1.13-4-2.8ZM1.75,14.29v-1.31l1.35.79-1.35.52Z"></path>
          <g>
            <path class="cls-1" d="M28.42,14.92s.03,0,.04-.02c0-.01.01-.02.01-.04s0-.03-.02-.04c-.01,0-.02-.01-.04-.01-.02,0-.03,0-.04.01,0,0-.01.02-.01.04s0,.03.01.04c0,.01.02.02.04.02Z"></path>
            <path class="cls-1" d="M25.72,14.85s-.02,0-.02,0c0,0-.02,0-.03,0h-.05v.1h.04s.02,0,.03,0c0,0,.02,0,.02,0,0,0,.01,0,.02-.02,0,0,0-.02,0-.03s0-.02,0-.03c0,0,0-.01-.02-.02Z"></path>
            <path class="cls-1" d="M27.61,14.82s-.04,0-.05.02c-.01.01-.02.03-.02.05,0,.02,0,.04.02.05s.03.02.05.02.04,0,.05-.02c.01-.01.02-.03.02-.05,0-.02,0-.04-.02-.05s-.03-.02-.05-.02Z"></path>
            <path class="cls-1" d="M28.02,14.98s-.04,0-.05.02c-.01.01-.02.03-.02.05,0,.02,0,.04.02.05.01.01.03.02.05.02s.04,0,.05-.02c.01-.01.02-.03.02-.05,0-.02,0-.04-.02-.05-.01-.01-.03-.02-.05-.02Z"></path>
            <path class="cls-1" d="M29.26,14.64h-1.27l-1.45-2.31-1.41,2.31h-1.01v.65h.63l-.68,1.12h.78l.69-1.12h1.98l.69,1.12h.86l-.69-1.12h.87v-.65ZM25.04,15.07s-.03.05-.06.07c-.02.02-.05.03-.08.04s-.06.01-.09.01h-.16v-.44h.16s.06,0,.09.01c.03,0,.06.02.08.04.02.02.04.04.06.07.01.03.02.06.02.1,0,.04,0,.07-.02.1ZM26.53,13.68l.6.96h-1.19l.59-.96ZM25.44,15.19h-.31v-.44h.3v.09h-.19v.08h.18v.09h-.18v.09h.2v.09ZM25.83,14.95s-.02.03-.04.04c-.02.01-.03.02-.06.02-.02,0-.04,0-.07,0h-.05v.17h-.11v-.44h.16s.05,0,.07,0c.02,0,.04.01.05.02.02.01.03.02.04.04,0,.02.01.04.01.06s0,.05-.01.07ZM26.28,15.02s0,.05-.01.07c0,.02-.02.04-.04.06-.02.02-.04.03-.06.04-.02,0-.05.01-.08.01s-.06,0-.08-.01c-.02,0-.04-.02-.06-.04-.02-.02-.03-.03-.04-.06s-.01-.05-.01-.07v-.27h.11v.27s0,.02,0,.03c0,.01,0,.02.01.03,0,0,.01.02.03.02.01,0,.02,0,.04,0s.03,0,.04,0c.01,0,.02-.01.03-.02,0,0,.01-.02.01-.03,0-.01,0-.02,0-.03v-.27h.11v.27ZM26.48,15.19h-.11v-.44h.11v.44ZM26.66,14.89s0,0,.01.01c0,0,.01,0,.02.01s.02,0,.03,0c.01,0,.03.01.05.02.02,0,.03.01.04.02s.02.02.03.04c0,.01.01.03.01.06,0,.03,0,.05-.01.07,0,.02-.02.03-.04.05-.02.01-.03.02-.05.03s-.04,0-.06,0c-.03,0-.06,0-.09-.02-.03-.01-.05-.03-.07-.05l.07-.07s.03.02.04.03c.02,0,.04.01.05.01,0,0,.02,0,.02,0,0,0,.01,0,.02,0,0,0,.01,0,.01-.01,0,0,0-.01,0-.02s0-.02,0-.02c0,0-.01-.01-.02-.02,0,0-.02,0-.03-.01-.01,0-.02,0-.04-.01-.01,0-.03,0-.04-.02-.01,0-.03-.01-.04-.02-.01,0-.02-.02-.03-.04,0-.01,0-.03,0-.05,0-.02,0-.05.01-.06s.02-.03.04-.04c.02-.01.03-.02.05-.02.02,0,.04,0,.06,0,.02,0,.05,0,.08.01.03,0,.05.02.07.04l-.07.07s-.02-.02-.04-.03c-.01,0-.03-.01-.04-.01,0,0-.01,0-.02,0,0,0-.01,0-.02,0,0,0-.01,0-.01.01,0,0,0,.01,0,.02,0,0,0,.01,0,.02ZM27.33,15.19h-.1v-.32l-.08.06-.05-.07.14-.11h.1v.44ZM27.77,14.97s-.02.04-.04.07l-.11.16h-.13l.11-.15h0s0,0-.02,0c0,0-.01,0-.02,0-.02,0-.04,0-.06-.01-.02,0-.03-.02-.05-.03-.01-.01-.02-.03-.03-.05,0-.02-.01-.04-.01-.06,0-.02,0-.05.01-.07,0-.02.02-.04.04-.05.02-.01.03-.02.06-.03.02,0,.04-.01.07-.01s.05,0,.07.01c.02,0,.04.02.05.03.02.01.03.03.04.05,0,.02.01.04.01.07,0,.03,0,.05-.01.07ZM28.18,15.11s-.02.04-.04.05c-.02.01-.03.02-.06.03-.02,0-.04.01-.07.01s-.05,0-.07-.01c-.02,0-.04-.02-.05-.03-.02-.01-.03-.03-.04-.05,0-.02-.01-.04-.01-.07,0-.03,0-.05.01-.07,0-.02.02-.04.04-.07l.11-.16h.13l-.11.15h0s0,0,.01,0c0,0,.01,0,.02,0,.02,0,.04,0,.05.01.02,0,.03.02.05.03.01.01.02.03.03.05,0,.02.01.04.01.06,0,.02,0,.05-.01.07ZM28.57,15.13s-.02.03-.04.04c-.02.01-.03.02-.05.03-.02,0-.04,0-.06,0s-.04,0-.06,0c-.02,0-.04-.01-.05-.03-.02-.01-.03-.03-.04-.04,0-.02-.01-.04-.01-.06,0-.01,0-.03,0-.04,0-.01,0-.02.02-.03,0,0,.02-.02.03-.02,0,0,.02-.01.03-.01h0s-.04-.02-.05-.04c-.01-.02-.02-.04-.02-.06,0-.02,0-.04.01-.05,0-.02.02-.03.03-.04.01-.01.03-.02.05-.02.02,0,.04,0,.06,0s.04,0,.06,0c.02,0,.03.01.05.02.01.01.03.02.03.04,0,.02.01.03.01.05,0,.02,0,.05-.02.06-.01.02-.03.03-.05.03h0s.02.01.03.02c0,0,.02.01.02.02,0,0,.01.02.02.03,0,.01,0,.02,0,.04,0,.02,0,.04-.01.06Z"></path>
            <path class="cls-1" d="M24.91,14.87s-.03-.02-.05-.02-.03,0-.05,0h-.05v.26h.05s.04,0,.06,0,.03-.01.05-.02.02-.02.03-.04c0-.02.01-.04.01-.06s0-.05-.01-.06c0-.02-.02-.03-.03-.04Z"></path>
            <path class="cls-1" d="M28.42,15s-.03,0-.04.02c-.01.01-.02.03-.02.04s0,.03.02.04c.01.01.03.02.04.02s.03,0,.04-.02c.01-.01.02-.02.02-.04s0-.03-.02-.04c-.01-.01-.03-.02-.04-.02Z"></path>
          </g>
        </g>
        <g>
          <path class="cls-2" d="M10.15,12.18l-2.11,2.03,1.79,2.21,2.1-2.05-1.79-2.18ZM8.72,14.21l1.27-1.2,1.23,1.3-1.27,1.22-1.24-1.31Z"></path>
          <polygon class="cls-2" points="7.75 16.41 7.16 16.41 7.16 14.67 5.43 14.67 5.43 16.41 4.84 16.41 4.84 14.67 4.13 14.67 4.13 14.08 4.84 14.08 4.84 12.35 5.43 12.35 5.43 14.08 7.16 14.08 7.16 12.35 7.75 12.35 7.75 16.41"></polygon>
          <polygon class="cls-2" points="15.61 16.41 12.3 16.41 12.3 15.77 12.68 15.77 12.68 14.76 12.23 14.76 12.23 14.09 12.68 14.09 12.68 13.02 12.24 13.02 12.24 12.33 15.11 12.33 15.11 13.02 13.34 13.02 13.34 14.09 14.69 14.09 14.69 14.76 13.34 14.76 13.34 15.77 15.61 15.77 15.61 16.41"></polygon>
          <polygon class="cls-2" points="18.19 16.41 16.63 14.98 16.63 16.41 16.08 16.41 16.08 14.51 15.09 13.59 15.68 13.33 17.61 15.07 17.61 12.33 18.19 12.33 18.19 16.41"></polygon>
          <rect class="cls-2" x="18.68" y="13.25" width=".65" height="3.16"></rect>
          <rect class="cls-2" x="18.67" y="12.33" width=".68" height=".7"></rect>
          <polygon class="cls-2" points="21.71 15.5 22.32 14.91 22.82 15.42 21.78 16.41 19.69 14.19 21.68 12.3 22.86 13.56 22.44 13.97 21.71 13.21 20.58 14.29 21.71 15.5"></polygon>
          <rect class="cls-2" x="23.06" y="13.27" width=".64" height="3.14"></rect>
          <polygon class="cls-2" points="23.71 13.05 23.04 13.05 23.03 12.33 23.71 12.33 23.71 13.05"></polygon>
          <path class="cls-2" d="M0,11.1v.8l1.21.85v1.73l-1.21.46v1.13l1.23-.66v1h.69v-1.37l2.08-1.13-4-2.8ZM1.75,14.29v-1.31l1.35.79-1.35.52Z"></path>
          <g>
            <path class="cls-2" d="M28.42,14.92s.03,0,.04-.02c0-.01.01-.02.01-.04s0-.03-.02-.04c-.01,0-.02-.01-.04-.01-.02,0-.03,0-.04.01,0,0-.01.02-.01.04s0,.03.01.04c0,.01.02.02.04.02Z"></path>
            <path class="cls-2" d="M25.72,14.85s-.02,0-.02,0c0,0-.02,0-.03,0h-.05v.1h.04s.02,0,.03,0c0,0,.02,0,.02,0,0,0,.01,0,.02-.02,0,0,0-.02,0-.03s0-.02,0-.03c0,0,0-.01-.02-.02Z"></path>
            <path class="cls-2" d="M27.61,14.82s-.04,0-.05.02c-.01.01-.02.03-.02.05,0,.02,0,.04.02.05s.03.02.05.02.04,0,.05-.02c.01-.01.02-.03.02-.05,0-.02,0-.04-.02-.05s-.03-.02-.05-.02Z"></path>
            <path class="cls-2" d="M28.02,14.98s-.04,0-.05.02c-.01.01-.02.03-.02.05,0,.02,0,.04.02.05.01.01.03.02.05.02s.04,0,.05-.02c.01-.01.02-.03.02-.05,0-.02,0-.04-.02-.05-.01-.01-.03-.02-.05-.02Z"></path>
            <path class="cls-2" d="M29.26,14.64h-1.27l-1.45-2.31-1.41,2.31h-1.01v.65h.63l-.68,1.12h.78l.69-1.12h1.98l.69,1.12h.86l-.69-1.12h.87v-.65ZM25.04,15.07s-.03.05-.06.07c-.02.02-.05.03-.08.04s-.06.01-.09.01h-.16v-.44h.16s.06,0,.09.01c.03,0,.06.02.08.04.02.02.04.04.06.07.01.03.02.06.02.1,0,.04,0,.07-.02.1ZM26.53,13.68l.6.96h-1.19l.59-.96ZM25.44,15.19h-.31v-.44h.3v.09h-.19v.08h.18v.09h-.18v.09h.2v.09ZM25.83,14.95s-.02.03-.04.04c-.02.01-.03.02-.06.02-.02,0-.04,0-.07,0h-.05v.17h-.11v-.44h.16s.05,0,.07,0c.02,0,.04.01.05.02.02.01.03.02.04.04,0,.02.01.04.01.06s0,.05-.01.07ZM26.28,15.02s0,.05-.01.07c0,.02-.02.04-.04.06-.02.02-.04.03-.06.04-.02,0-.05.01-.08.01s-.06,0-.08-.01c-.02,0-.04-.02-.06-.04-.02-.02-.03-.03-.04-.06s-.01-.05-.01-.07v-.27h.11v.27s0,.02,0,.03c0,.01,0,.02.01.03,0,0,.01.02.03.02.01,0,.02,0,.04,0s.03,0,.04,0c.01,0,.02-.01.03-.02,0,0,.01-.02.01-.03,0-.01,0-.02,0-.03v-.27h.11v.27ZM26.48,15.19h-.11v-.44h.11v.44ZM26.66,14.89s0,0,.01.01c0,0,.01,0,.02.01s.02,0,.03,0c.01,0,.03.01.05.02.02,0,.03.01.04.02s.02.02.03.04c0,.01.01.03.01.06,0,.03,0,.05-.01.07,0,.02-.02.03-.04.05-.02.01-.03.02-.05.03s-.04,0-.06,0c-.03,0-.06,0-.09-.02-.03-.01-.05-.03-.07-.05l.07-.07s.03.02.04.03c.02,0,.04.01.05.01,0,0,.02,0,.02,0,0,0,.01,0,.02,0,0,0,.01,0,.01-.01,0,0,0-.01,0-.02s0-.02,0-.02c0,0-.01-.01-.02-.02,0,0-.02,0-.03-.01-.01,0-.02,0-.04-.01-.01,0-.03,0-.04-.02-.01,0-.03-.01-.04-.02-.01,0-.02-.02-.03-.04,0-.01,0-.03,0-.05,0-.02,0-.05.01-.06s.02-.03.04-.04c.02-.01.03-.02.05-.02.02,0,.04,0,.06,0,.02,0,.05,0,.08.01.03,0,.05.02.07.04l-.07.07s-.02-.02-.04-.03c-.01,0-.03-.01-.04-.01,0,0-.01,0-.02,0,0,0-.01,0-.02,0,0,0-.01,0-.01.01,0,0,0,.01,0,.02,0,0,0,.01,0,.02ZM27.33,15.19h-.1v-.32l-.08.06-.05-.07.14-.11h.1v.44ZM27.77,14.97s-.02.04-.04.07l-.11.16h-.13l.11-.15h0s0,0-.02,0c0,0-.01,0-.02,0-.02,0-.04,0-.06-.01-.02,0-.03-.02-.05-.03-.01-.01-.02-.03-.03-.05,0-.02-.01-.04-.01-.06,0-.02,0-.05.01-.07,0-.02.02-.04.04-.05.02-.01.03-.02.06-.03.02,0,.04-.01.07-.01s.05,0,.07.01c.02,0,.04.02.05.03.02.01.03.03.04.05,0,.02.01.04.01.07,0,.03,0,.05-.01.07ZM28.18,15.11s-.02.04-.04.05c-.02.01-.03.02-.06.03-.02,0-.04.01-.07.01s-.05,0-.07-.01c-.02,0-.04-.02-.05-.03-.02-.01-.03-.03-.04-.05,0-.02-.01-.04-.01-.07,0-.03,0-.05.01-.07,0-.02.02-.04.04-.07l.11-.16h.13l-.11.15h0s0,0,.01,0c0,0,.01,0,.02,0,.02,0,.04,0,.05.01.02,0,.03.02.05.03.01.01.02.03.03.05,0,.02.01.04.01.06,0,.02,0,.05-.01.07ZM28.57,15.13s-.02.03-.04.04c-.02.01-.03.02-.05.03-.02,0-.04,0-.06,0s-.04,0-.06,0c-.02,0-.04-.01-.05-.03-.02-.01-.03-.03-.04-.04,0-.02-.01-.04-.01-.06,0-.01,0-.03,0-.04,0-.01,0-.02.02-.03,0,0,.02-.02.03-.02,0,0,.02-.01.03-.01h0s-.04-.02-.05-.04c-.01-.02-.02-.04-.02-.06,0-.02,0-.04.01-.05,0-.02.02-.03.03-.04.01-.01.03-.02.05-.02.02,0,.04,0,.06,0s.04,0,.06,0c.02,0,.03.01.05.02.01.01.03.02.03.04,0,.02.01.03.01.05,0,.02,0,.05-.02.06-.01.02-.03.03-.05.03h0s.02.01.03.02c0,0,.02.01.02.02,0,0,.01.02.02.03,0,.01,0,.02,0,.04,0,.02,0,.04-.01.06Z"></path>
            <path class="cls-2" d="M24.91,14.87s-.03-.02-.05-.02-.03,0-.05,0h-.05v.26h.05s.04,0,.06,0,.03-.01.05-.02.02-.02.03-.04c0-.02.01-.04.01-.06s0-.05-.01-.06c0-.02-.02-.03-.03-.04Z"></path>
            <path class="cls-2" d="M28.42,15s-.03,0-.04.02c-.01.01-.02.03-.02.04s0,.03.02.04c.01.01.03.02.04.02s.03,0,.04-.02c.01-.01.02-.02.02-.04s0-.03-.02-.04c-.01-.01-.03-.02-.04-.02Z"></path>
          </g>
        </g>
      </g>
      <g>
        <path class="cls-2" d="M8.28,5.57c.05.18.07.4.07.4.04.75.48,1.39,1.12,1.71.25.15.64.3.98.4.18-.04.31-.11.44-.18.19-.1.39-.21.72-.25l.6-.7h.33l-.59.69c.13,0,.24.01.34.03l.62-.72h.34l-.69.79c.11.04.2.08.28.13l.79-.92h.33l-.89,1.04c.09.04.18.08.29.11l.97-1.14h.33l-.99,1.18s.07,0,.1,0c.1,0,.18,0,.26-.02l1.01-1.17h.33l-.87,1.02s.09-.05.14-.07c.13-.07.28-.15.47-.2l.64-.75h.33l-.59.69c.05,0,.11,0,.17,0,.51,0,.78.14,1.02.27.22.12.44.23.87.23s.64-.11.87-.23c.24-.13.51-.27,1.02-.27.22,0,.39.02.54.06-.05-.09-.08-.2-.08-.31,0-.36.29-.65.65-.65.05,0,.11,0,.16.02-.09-.03-.32-.09-.6-.14.1-.02.19-.07.27-.15.25-.25.25-.66,0-.91-.3-.3-.78-.3-1.08,0-.35.35-.35.92,0,1.27-.39-.2-.56-.63-.62-.74-.07-.11-.18-.15-.38-.15h-1.24l-.46-.96c.82.07,1.42.34,1.76.79,1.47-.47,1.23-2.72-.45-4.18h.36s0,.01,0,.01c.06,0,.1-.06.1-.11,0-.06-.05-.11-.11-.11,0,0-.01,0-.01,0l-2.27-.07-.83-.66s.21,0,.21,0c.06,0,.12-.05.12-.12s-.05-.11-.11-.12h-.89s0-.29,0-.29c0-.06-.05-.11-.12-.11s-.11.05-.12.11v.29h-.92c-.06,0-.12.05-.12.12s.05.12.12.12h.25l-.71.56-2.68-.08c-.06,0-.11.06-.11.12s.05.11.11.12h.33c2.42,1.71,2,3.72-.2,4.98.42-.18,1.53-.42,1.92-.56l-.47.98h-.02s-.06-.24-.34-.24h-.27c-1.31,0-1.83-.34-1.95-.57-.05-.11-.07-.18-.03-.26M17.79,1.58c0,.2-.21.36-.45.35-.24,0-.44-.18-.45-.38l.89.03ZM16.48,5.93s-.03,0-.05,0l-.47-.98s.07,0,.1,0l.47.98h-.05ZM16.85,5.93h-.1l-.47-.98s.07,0,.1,0l.47.97ZM16.38,1.53c-.01.2-.21.36-.45.36-.25,0-.45-.18-.46-.38l.91.03ZM14.87.63l.82.65h-.32s-.56-.65-.56-.65h.06ZM14.58.63l.55.63h-.26s-.36-.63-.36-.63h.06ZM14.47.89l.2.35h-.2v-.35ZM14.47,1.47h.47c-.01.22-.21.38-.46.37,0,0,0,0,0,0v-.37ZM14.47,5.13c.46-.09.89-.15,1.28-.17l.5,1.04c-.06.06-.1.15-.1.29v.45h-.42c.09-.04.15-.13.15-.23,0-.14-.12-.26-.26-.26s-.26.11-.26.26c0,.1.06.19.15.23h-.58c.09-.04.15-.13.15-.23,0-.14-.11-.26-.26-.26s-.26.11-.26.26c0,.1.06.19.15.23h-.24v-1.61ZM11.5,1.76c-.26,0-.47-.18-.48-.4l.97.03c-.01.21-.22.37-.48.37ZM12.4,6.74h-.1l.57-1.19s.08-.02.12-.04l-.59,1.23ZM14.24,6.74h-.25c.09-.04.15-.13.15-.23,0-.14-.12-.26-.26-.26s-.26.11-.26.26c0,.1.06.19.15.23h-.58c.09-.04.15-.13.15-.23,0-.14-.12-.26-.26-.26s-.26.11-.26.26c0,.1.06.19.15.23h-.36l.63-1.3c.35-.1.68-.19,1-.26v1.56ZM14.24,1.78c-.13-.07-.22-.19-.23-.32h.23v.32ZM14.24,1.23h-.19s.19-.33.19-.33v.33ZM14.19.63l-.34.59h-.24s.51-.59.51-.59h.06ZM13.84.63h.06l-.5.58h-.27s.72-.58.72-.58ZM13.48,1.44c-.01.21-.22.37-.47.36-.26,0-.46-.18-.47-.39l.95.03ZM12.5,5.67s.08-.03.12-.04l-.53,1.11h-.1l.51-1.07Z"></path>
        <path class="cls-2" d="M19.44,8.72c-.94,0-.94.5-1.88.5s-.94-.5-1.88-.5-.94.5-1.88.5-.94-.5-1.88-.5-.94.5-1.88.5c-.52,0-.76-.17-1.03-.31-.23-.12-.5.05-.5.3h0c0,.14.09.27.23.32.43.15.6.39,1.3.39.94,0,.94-.5,1.88-.5s.94.5,1.88.5c.94,0,.94-.5,1.88-.5s.94.5,1.88.5.94-.5,1.88-.5c.57,0,.8.2,1.1.35.22.11.49-.06.49-.31h0c0-.16-.1-.29-.24-.33-.46-.15-.62-.41-1.35-.41Z"></path>
        <path class="cls-2" d="M19.44,7.82c-.94,0-.94.5-1.88.5s-.94-.5-1.88-.5-.94.5-1.88.5-.94-.5-1.88-.5-.94.5-1.88.5c-.52,0-.76-.17-1.03-.31-.23-.12-.5.05-.5.3h0c0,.14.09.27.23.32.43.15.6.39,1.3.39.94,0,.94-.5,1.88-.5s.94.5,1.88.5c.94,0,.94-.5,1.88-.5s.95.5,1.88.5.94-.5,1.88-.5c.57,0,.8.2,1.1.35.22.11.49-.06.49-.31h0c0-.16-.1-.29-.24-.33-.46-.15-.62-.41-1.35-.41Z"></path>
        <path class="cls-2" d="M8.74,5.94c-.26,0-.47-.21-.47-.47,0-.26.21-.47.47-.47s.47.21.47.47-.21.47-.47.47Z"></path>
        <circle class="cls-2" cx="20.55" cy="7.39" r=".47"></circle>
      </g>
    </g>
  </g>
</svg>