<?xml version="1.0"?>
<svg id="Layer_2" data-name="Layer 2" xmlns="http://www.w3.org/2000/svg" viewBox="0 0 38.6 9.14">
  <defs>
    
  </defs>
  <g id="Logos">
    <g>
      <path class="cls-1" d="M10.14,3.64l-.72,1.64h1.44l-.48-2.18-.24.55h0ZM23.58,3.64l-.72,1.64h1.44l-.48-2.18-.24.55h0Z"></path>
      <path class="cls-1" d="M0,0v9.14h38.6V0H0ZM3.55,5.08l.07.24.11.22.14.2.23.2.24.13.25.09.27.05h.37s.28-.03.28-.03l.27-.09.26-.12.25-.15.21-.17-.19,1.68-.55.21-.38.09-.48.06h-.36s-.35-.01-.35-.01l-.34-.07-.32-.11-.31-.15-.37-.25-.25-.24-.22-.27-.18-.29-.14-.31-.12-.34-.07-.35-.02-.35v-.36s.07-.36.07-.36l.1-.36.14-.36.16-.33.2-.31.24-.29.27-.27.29-.23.33-.22.35-.17.37-.13.38-.1.42-.06h.38s.38.02.38.02l.36.07.35.11.19.09.14.06-.14,1.27-.05.4-.22-.21-.22-.14-.24-.11-.26-.07-.26-.03h-.27l-.27.05-.29.1-.25.12-.23.15-.2.18-.17.21-.16.27-.1.26-.06.27-.02.26.03.33h0ZM11.45,7.63l-.29-1.1h-2.27l-.52,1.1h-1.72l.14-.3,2.79-5.81h1.92l1.7,6.11h-1.75ZM18.09,7.62l-2.45-3.7-.41,3.7h-1.67l.68-6.11h1.59l2.51,3.75.42-3.75h1.64l-.15,1.4-.53,4.7h-1.63,0ZM24.88,7.63l-.29-1.1h-2.27l-.52,1.1h-1.72l.16-.33,2.77-5.78h1.92l1.7,6.11h-1.75ZM30.53,7.62h-3.54l.68-6.11h1.67l-.51,4.56v.1s1.85,0,1.85,0l-.16,1.45ZM36.78,5.27h-2.18v2.26h-1.54v-2.26h-2.18v-1.51h2.18V1.52h1.54v2.25h2.18v1.51Z"></path>
    </g>
  </g>
</svg>